<svg width="119" height="129" viewBox="0 0 119 129" fill="none" xmlns="http://www.w3.org/2000/svg">
<path fill-rule="evenodd" clip-rule="evenodd" d="M34 0H34.083L34 0.205067V0ZM83.9174 0H34.083L54 22.1827L44.3119 31L30 10.0855L30.0196 10.0371H24.9469C11.1689 10.0371 0 21.2066 0 34.984V103.5C0 117.278 11.1695 128.447 24.9469 128.447H93.463C107.241 128.447 118.41 117.278 118.41 103.5V34.984C118.41 21.206 107.24 10.0371 93.463 10.0371H87.9804L88 10.0855L73.6878 31L64 22.1827L83.9174 0ZM83.9174 0H84V0.204042L83.9174 0ZM59.2052 53.8254C61.7864 53.8254 63.8789 51.7329 63.8789 49.1516C63.8789 46.5704 61.7864 44.4779 59.2052 44.4779C56.6239 44.4779 54.5314 46.5704 54.5314 49.1516C54.5314 51.7329 56.6239 53.8254 59.2052 53.8254ZM63.8789 75.5746C63.8789 78.1558 61.7864 80.2483 59.2052 80.2483C56.6239 80.2483 54.5314 78.1558 54.5314 75.5746C54.5314 72.9933 56.6239 70.9008 59.2052 70.9008C61.7864 70.9008 63.8789 72.9933 63.8789 75.5746ZM59.2052 106.672C61.7864 106.672 63.8789 104.579 63.8789 101.998C63.8789 99.4168 61.7864 97.3243 59.2052 97.3243C56.6239 97.3243 54.5314 99.4168 54.5314 101.998C54.5314 104.579 56.6239 106.672 59.2052 106.672Z" fill="white"/>
</svg>
