<svg width="145" height="32" viewBox="0 0 145 32" fill="none" xmlns="http://www.w3.org/2000/svg">
<path fill-rule="evenodd" clip-rule="evenodd" d="M8.47042 0H8.4911L8.47042 0.0510711V0ZM20.9063 0H8.4911L13.453 5.52639L11.0394 7.72303L7.4739 2.5126L7.47878 2.50054H6.21502C2.78251 2.50054 0 5.2832 0 8.71556V25.785C0 29.2175 2.78266 32 6.21502 32H23.2844C26.717 32 29.4995 29.2175 29.4995 25.785V8.71556C29.4995 5.28306 26.7168 2.50054 23.2844 2.50054H21.9186L21.9234 2.5126L18.3578 7.72303L15.9443 5.52639L20.9063 0ZM20.9063 0H20.9269V0.0508408L20.9063 0ZM14.7498 13.4095C15.3929 13.4095 15.9142 12.8882 15.9142 12.2451C15.9142 11.6021 15.3929 11.0808 14.7498 11.0808C14.1067 11.0808 13.5854 11.6021 13.5854 12.2451C13.5854 12.8882 14.1067 13.4095 14.7498 13.4095ZM15.9142 18.8279C15.9142 19.4709 15.3929 19.9923 14.7498 19.9923C14.1067 19.9923 13.5854 19.4709 13.5854 18.8279C13.5854 18.1848 14.1067 17.6635 14.7498 17.6635C15.3929 17.6635 15.9142 18.1848 15.9142 18.8279ZM14.7498 26.5751C15.3929 26.5751 15.9142 26.0538 15.9142 25.4108C15.9142 24.7677 15.3929 24.2464 14.7498 24.2464C14.1067 24.2464 13.5854 24.7677 13.5854 25.4108C13.5854 26.0538 14.1067 26.5751 14.7498 26.5751Z" fill="#FFE600"/>
<path d="M47.1328 23.48C46.5415 23.48 46.0833 23.3174 45.7581 22.9922C45.4477 22.667 45.2925 22.2088 45.2925 21.6175V9.31175C45.2925 8.7057 45.4625 8.24746 45.8024 7.93705C46.1424 7.61185 46.6228 7.44925 47.2437 7.44925C47.761 7.44925 48.1675 7.55272 48.4632 7.75967C48.7736 7.95183 49.0544 8.27703 49.3057 8.73526L54.0728 17.2939H53.2968L58.0417 8.73526C58.3078 8.27703 58.5886 7.95183 58.8843 7.75967C59.1947 7.55272 59.6086 7.44925 60.1259 7.44925C60.7172 7.44925 61.168 7.61185 61.4785 7.93705C61.8037 8.24746 61.9663 8.7057 61.9663 9.31175V21.6175C61.9663 22.2088 61.811 22.667 61.5006 22.9922C61.1902 23.3174 60.732 23.48 60.1259 23.48C59.5347 23.48 59.0764 23.3174 58.7512 22.9922C58.4408 22.667 58.2856 22.2088 58.2856 21.6175V13.9902H58.7512L55.1814 20.1985C54.9745 20.5237 54.7528 20.7676 54.5163 20.9302C54.2945 21.0928 53.9915 21.1741 53.6072 21.1741C53.2377 21.1741 52.9346 21.0928 52.6981 20.9302C52.4616 20.7676 52.2473 20.5237 52.0551 20.1985L48.4632 13.968H48.9731V21.6175C48.9731 22.2088 48.8179 22.667 48.5075 22.9922C48.1971 23.3174 47.7389 23.48 47.1328 23.48Z" fill="#FFE600"/>
<path d="M67.7486 27.4711C67.2904 27.4711 66.9208 27.3528 66.64 27.1163C66.3591 26.8798 66.1818 26.5694 66.1078 26.1851C66.0487 25.8007 66.1152 25.3943 66.3074 24.9656L67.793 21.7506V23.347L64.0015 14.6775C63.8093 14.2341 63.7428 13.8202 63.8019 13.4358C63.8758 13.0515 64.0754 12.7485 64.4006 12.5268C64.7258 12.2903 65.1692 12.172 65.7309 12.172C66.2039 12.172 66.5809 12.2829 66.8617 12.5046C67.1573 12.7115 67.4234 13.1254 67.6599 13.7463L69.8772 19.5111H69.1233L71.4736 13.7241C71.7101 13.118 71.9762 12.7115 72.2718 12.5046C72.5822 12.2829 72.9961 12.172 73.5135 12.172C73.9569 12.172 74.3117 12.2903 74.5778 12.5268C74.8438 12.7485 75.0064 13.0515 75.0656 13.4358C75.1247 13.8202 75.0582 14.2341 74.866 14.6775L69.8328 25.9855C69.5668 26.5768 69.2711 26.9685 68.9459 27.1607C68.6355 27.3676 68.2364 27.4711 67.7486 27.4711Z" fill="#FFE600"/>
<path d="M84.7332 23.5244C83.0037 23.5244 81.5181 23.1918 80.2765 22.5266C79.0348 21.8614 78.0814 20.9228 77.4162 19.7107C76.7658 18.4986 76.4406 17.0795 76.4406 15.4535C76.4406 14.2414 76.6254 13.1402 76.9949 12.1498C77.3792 11.1595 77.9262 10.3095 78.6357 9.59999C79.36 8.89047 80.2321 8.35094 81.2521 7.98139C82.2868 7.59707 83.4471 7.40491 84.7332 7.40491C85.4131 7.40491 86.1152 7.48621 86.8395 7.6488C87.5786 7.79662 88.229 8.02574 88.7907 8.33615C89.2046 8.55788 89.4929 8.83873 89.6555 9.17871C89.8181 9.51869 89.8698 9.86606 89.8107 10.2208C89.7663 10.5756 89.6407 10.8934 89.4337 11.1742C89.2268 11.4551 88.9607 11.6473 88.6355 11.7507C88.3103 11.8394 87.9556 11.7877 87.5712 11.5955C87.1278 11.3886 86.6843 11.2334 86.2409 11.1299C85.8122 11.0116 85.3614 10.9525 84.8884 10.9525C83.9719 10.9525 83.2032 11.1299 82.5824 11.4847C81.9764 11.8246 81.5181 12.3272 81.2077 12.9924C80.8973 13.6576 80.7421 14.478 80.7421 15.4535C80.7421 16.4291 80.8973 17.2569 81.2077 17.9369C81.5181 18.6021 81.9764 19.112 82.5824 19.4668C83.2032 19.8068 83.9719 19.9768 84.8884 19.9768C85.2727 19.9768 85.6866 19.9324 86.13 19.8437C86.5735 19.7402 87.0095 19.585 87.4382 19.3781C87.8817 19.1859 88.2734 19.1342 88.6133 19.2229C88.9681 19.3116 89.249 19.489 89.4559 19.755C89.6776 20.0211 89.8181 20.3315 89.8772 20.6863C89.9363 21.0263 89.8846 21.3662 89.722 21.7062C89.5742 22.0462 89.3081 22.3197 88.9238 22.5266C88.4064 22.837 87.7634 23.0809 86.9948 23.2583C86.2409 23.4357 85.487 23.5244 84.7332 23.5244Z" fill="#FFE600"/>
<path d="M95.9852 23.5244C94.5662 23.5244 93.5167 23.1474 92.8367 22.3936C92.1715 21.6249 91.8389 20.4719 91.8389 18.9346V9.44478C91.8389 8.79439 92.0089 8.2992 92.3489 7.95922C92.6889 7.61924 93.1693 7.44925 93.7901 7.44925C94.4257 7.44925 94.9135 7.61924 95.2535 7.95922C95.6083 8.2992 95.7857 8.79439 95.7857 9.44478V18.8016C95.7857 19.3485 95.8891 19.7476 96.0961 19.9989C96.3178 20.2502 96.5987 20.3759 96.9386 20.3759C97.0421 20.3759 97.1456 20.3685 97.249 20.3537C97.3673 20.3241 97.4929 20.302 97.626 20.2872C97.8773 20.2872 98.062 20.3833 98.1803 20.5754C98.3133 20.7676 98.3798 21.1593 98.3798 21.7506C98.3798 22.2679 98.2764 22.6596 98.0694 22.9257C97.8625 23.177 97.5447 23.3396 97.116 23.4135C96.9978 23.4283 96.8278 23.4505 96.606 23.48C96.3843 23.5096 96.1774 23.5244 95.9852 23.5244Z" fill="#FFE600"/>
<path d="M104.96 23.5244C103.748 23.5244 102.691 23.2952 101.789 22.837C100.888 22.3788 100.186 21.721 99.683 20.8637C99.1804 20.0063 98.9291 18.9938 98.9291 17.826C98.9291 16.9391 99.0696 16.1483 99.3504 15.4535C99.6313 14.744 100.038 14.1454 100.57 13.6576C101.102 13.155 101.738 12.7781 102.477 12.5268C103.216 12.2607 104.044 12.1277 104.96 12.1277C106.172 12.1277 107.229 12.3568 108.131 12.815C109.032 13.2732 109.727 13.931 110.215 14.7884C110.718 15.6309 110.969 16.6435 110.969 17.826C110.969 18.6981 110.828 19.489 110.548 20.1985C110.267 20.908 109.86 21.5141 109.328 22.0166C108.811 22.5044 108.175 22.8814 107.421 23.1474C106.682 23.3987 105.862 23.5244 104.96 23.5244ZM104.96 20.6198C105.359 20.6198 105.714 20.5237 106.024 20.3315C106.335 20.1246 106.571 19.8215 106.734 19.4224C106.911 19.0086 107 18.4764 107 17.826C107 16.8356 106.808 16.1261 106.423 15.6974C106.039 15.254 105.551 15.0323 104.96 15.0323C104.561 15.0323 104.206 15.1284 103.896 15.3205C103.585 15.5127 103.341 15.8157 103.164 16.2296C102.987 16.6287 102.898 17.1608 102.898 17.826C102.898 18.8016 103.09 19.5111 103.475 19.9546C103.859 20.398 104.354 20.6198 104.96 20.6198Z" fill="#FFE600"/>
<path d="M117.123 23.5244C116.473 23.5244 115.808 23.4726 115.128 23.3692C114.462 23.2805 113.856 23.1105 113.309 22.8592C112.94 22.7114 112.674 22.5118 112.511 22.2605C112.363 22.0092 112.289 21.7432 112.289 21.4623C112.304 21.1815 112.386 20.9302 112.533 20.7084C112.696 20.4719 112.903 20.3093 113.154 20.2207C113.42 20.1172 113.716 20.1246 114.041 20.2428C114.662 20.4645 115.216 20.6271 115.704 20.7306C116.207 20.8193 116.687 20.8637 117.145 20.8637C117.692 20.8637 118.084 20.7897 118.32 20.6419C118.557 20.4793 118.675 20.2724 118.675 20.0211C118.675 19.7994 118.594 19.6294 118.431 19.5111C118.283 19.3929 118.069 19.3116 117.788 19.2672L115.327 18.8681C114.411 18.7055 113.701 18.3729 113.199 17.8704C112.696 17.353 112.445 16.6804 112.445 15.8527C112.445 15.084 112.659 14.4262 113.088 13.8793C113.531 13.3176 114.13 12.8889 114.884 12.5933C115.652 12.2829 116.532 12.1277 117.522 12.1277C118.187 12.1277 118.793 12.1794 119.34 12.2829C119.887 12.3716 120.419 12.5416 120.937 12.7928C121.262 12.9259 121.491 13.118 121.624 13.3693C121.757 13.6206 121.809 13.8867 121.779 14.1675C121.75 14.4336 121.654 14.6849 121.491 14.9214C121.343 15.1431 121.136 15.2983 120.87 15.387C120.604 15.4609 120.294 15.4388 119.939 15.3205C119.451 15.1284 119.015 14.9879 118.631 14.8992C118.261 14.8105 117.914 14.7662 117.589 14.7662C116.983 14.7662 116.554 14.8475 116.303 15.0101C116.051 15.1727 115.926 15.3796 115.926 15.6309C115.926 15.8231 115.992 15.9857 116.125 16.1187C116.258 16.237 116.465 16.3183 116.746 16.3626L119.207 16.7839C120.153 16.9317 120.878 17.2569 121.38 17.7595C121.898 18.2473 122.156 18.9125 122.156 19.755C122.156 20.9523 121.698 21.8836 120.782 22.5488C119.865 23.1992 118.646 23.5244 117.123 23.5244Z" fill="#FFE600"/>
<path d="M129.719 23.5244C128.389 23.5244 127.236 23.2952 126.26 22.837C125.299 22.364 124.56 21.6988 124.043 20.8415C123.526 19.9841 123.267 18.9716 123.267 17.8038C123.267 16.6804 123.511 15.6974 123.999 14.8549C124.501 13.9976 125.181 13.3324 126.039 12.8594C126.911 12.3716 127.901 12.1277 129.01 12.1277C129.823 12.1277 130.562 12.2607 131.227 12.5268C131.892 12.7781 132.461 13.155 132.934 13.6576C133.407 14.1454 133.762 14.7366 133.999 15.4314C134.25 16.1261 134.375 16.9022 134.375 17.7595C134.375 18.0551 134.294 18.2769 134.132 18.4247C133.969 18.5577 133.71 18.6242 133.356 18.6242H126.571V16.7617H131.493L131.138 17.05C131.138 16.503 131.064 16.0596 130.917 15.7196C130.769 15.3796 130.547 15.121 130.251 14.9436C129.971 14.7662 129.616 14.6775 129.187 14.6775C128.729 14.6775 128.33 14.7884 127.99 15.0101C127.665 15.217 127.413 15.5275 127.236 15.9413C127.059 16.3552 126.97 16.8726 126.97 17.4934V17.693C126.97 18.7425 127.199 19.4963 127.657 19.9546C128.13 20.398 128.854 20.6198 129.83 20.6198C130.155 20.6198 130.525 20.5828 130.939 20.5089C131.367 20.4202 131.774 20.3019 132.158 20.1541C132.543 20.0063 132.875 19.9841 133.156 20.0876C133.437 20.1763 133.651 20.3389 133.799 20.5754C133.962 20.7971 134.05 21.0558 134.065 21.3515C134.08 21.6323 134.013 21.9132 133.865 22.194C133.718 22.4601 133.474 22.667 133.134 22.8148C132.616 23.0513 132.062 23.2287 131.471 23.347C130.894 23.4652 130.31 23.5244 129.719 23.5244Z" fill="#FFE600"/>
<path d="M141.71 23.5244C140.601 23.5244 139.685 23.3544 138.96 23.0144C138.251 22.6744 137.719 22.1644 137.364 21.4845C137.009 20.7897 136.832 19.925 136.832 18.8903V15.2762H136.078C135.605 15.2762 135.235 15.1505 134.969 14.8992C134.718 14.6479 134.592 14.2858 134.592 13.8128C134.592 13.3398 134.718 12.985 134.969 12.7485C135.235 12.4972 135.605 12.3716 136.078 12.3716H136.832V10.9969C136.832 10.3465 137.002 9.85128 137.342 9.5113C137.682 9.17132 138.17 9.00133 138.805 9.00133C139.441 9.00133 139.929 9.17132 140.269 9.5113C140.608 9.85128 140.778 10.3465 140.778 10.9969V12.3716H142.597C143.084 12.3716 143.454 12.4972 143.705 12.7485C143.971 12.985 144.104 13.3398 144.104 13.8128C144.104 14.2858 143.971 14.6479 143.705 14.8992C143.454 15.1505 143.084 15.2762 142.597 15.2762H140.778V18.7573C140.778 19.3042 140.904 19.7107 141.155 19.9768C141.421 20.228 141.835 20.3537 142.397 20.3537C142.604 20.3537 142.804 20.3315 142.996 20.2872C143.188 20.2428 143.365 20.2207 143.528 20.2207C143.764 20.2059 143.957 20.2798 144.104 20.4424C144.252 20.5902 144.326 20.9376 144.326 21.4845C144.326 21.9279 144.26 22.3049 144.127 22.6153C143.993 22.9109 143.757 23.1253 143.417 23.2583C143.21 23.3322 142.929 23.3913 142.574 23.4357C142.22 23.4948 141.931 23.5244 141.71 23.5244Z" fill="#FFE600"/>
</svg>
